<svg width="263" height="32" viewBox="0 0 263 32" fill="none" xmlns="http://www.w3.org/2000/svg">
<path d="M59.5048 16.5501C59.5048 15.1525 59.7648 13.9256 60.2848 12.8694C60.8211 11.8131 61.5442 11.0006 62.4542 10.4318C63.3643 9.86303 64.3799 9.57865 65.5012 9.57865C66.395 9.57865 67.2075 9.76553 67.9387 10.1393C68.6863 10.513 69.2713 11.0168 69.6938 11.6506V5.33729H73.862V23.3752H69.6938V21.4252C69.3038 22.0752 68.7431 22.5952 68.0119 22.9852C67.2969 23.3752 66.46 23.5702 65.5012 23.5702C64.3799 23.5702 63.3643 23.2859 62.4542 22.7171C61.5442 22.1321 60.8211 21.3114 60.2848 20.2552C59.7648 19.1826 59.5048 17.9476 59.5048 16.5501ZM69.6938 16.5744C69.6938 15.5344 69.4013 14.7138 68.8163 14.1125C68.2475 13.5112 67.5487 13.2106 66.72 13.2106C65.8912 13.2106 65.1843 13.5112 64.5993 14.1125C64.0305 14.6975 63.7461 15.51 63.7461 16.5501C63.7461 17.5901 64.0305 18.4189 64.5993 19.0364C65.1843 19.6377 65.8912 19.9383 66.72 19.9383C67.5487 19.9383 68.2475 19.6377 68.8163 19.0364C69.4013 18.4351 69.6938 17.6145 69.6938 16.5744ZM78.9738 8.35987C78.2426 8.35987 77.6413 8.14861 77.1701 7.7261C76.715 7.28734 76.4875 6.75108 76.4875 6.11731C76.4875 5.4673 76.715 4.93103 77.1701 4.50852C77.6413 4.06976 78.2426 3.85038 78.9738 3.85038C79.6889 3.85038 80.2739 4.06976 80.7289 4.50852C81.2002 4.93103 81.4358 5.4673 81.4358 6.11731C81.4358 6.75108 81.2002 7.28734 80.7289 7.7261C80.2739 8.14861 79.6889 8.35987 78.9738 8.35987ZM81.0458 9.77365V23.3752H76.8775V9.77365H81.0458ZM89.2341 9.57865C90.1928 9.57865 91.0297 9.77365 91.7448 10.1637C92.476 10.5537 93.0367 11.0656 93.4267 11.6993V9.77365H97.5949V23.3509C97.5949 24.6021 97.343 25.7316 96.8393 26.7391C96.3518 27.7629 95.5961 28.5754 94.5723 29.1766C93.5648 29.7779 92.3054 30.0785 90.7941 30.0785C88.7791 30.0785 87.1459 29.5991 85.8946 28.6404C84.6433 27.6979 83.9283 26.4141 83.7496 24.789H87.869C87.999 25.309 88.3078 25.7153 88.7953 26.0078C89.2828 26.3166 89.8841 26.4709 90.5991 26.4709C91.4604 26.4709 92.1429 26.2191 92.6467 25.7153C93.1667 25.2278 93.4267 24.4396 93.4267 23.3509V21.4252C93.0204 22.059 92.4598 22.579 91.7448 22.9852C91.0297 23.3752 90.1928 23.5702 89.2341 23.5702C88.1128 23.5702 87.0971 23.2859 86.1871 22.7171C85.2771 22.1321 84.554 21.3114 84.0177 20.2552C83.4977 19.1826 83.2377 17.9476 83.2377 16.5501C83.2377 15.1525 83.4977 13.9256 84.0177 12.8694C84.554 11.8131 85.2771 11.0006 86.1871 10.4318C87.0971 9.86303 88.1128 9.57865 89.2341 9.57865ZM93.4267 16.5744C93.4267 15.5344 93.1342 14.7138 92.5492 14.1125C91.9804 13.5112 91.2816 13.2106 90.4529 13.2106C89.6241 13.2106 88.9172 13.5112 88.3322 14.1125C87.7634 14.6975 87.479 15.51 87.479 16.5501C87.479 17.5901 87.7634 18.4189 88.3322 19.0364C88.9172 19.6377 89.6241 19.9383 90.4529 19.9383C91.2816 19.9383 91.9804 19.6377 92.5492 19.0364C93.1342 18.4351 93.4267 17.6145 93.4267 16.5744ZM102.707 8.35987C101.975 8.35987 101.374 8.14861 100.903 7.7261C100.448 7.28734 100.22 6.75108 100.22 6.11731C100.22 5.4673 100.448 4.93103 100.903 4.50852C101.374 4.06976 101.975 3.85038 102.707 3.85038C103.422 3.85038 104.007 4.06976 104.462 4.50852C104.933 4.93103 105.169 5.4673 105.169 6.11731C105.169 6.75108 104.933 7.28734 104.462 7.7261C104.007 8.14861 103.422 8.35987 102.707 8.35987ZM104.779 9.77365V23.3752H100.61V9.77365H104.779ZM115.38 19.8408V23.3752H113.259C111.748 23.3752 110.57 23.0096 109.725 22.2783C108.88 21.5308 108.457 20.3202 108.457 18.6464V13.235H106.8V9.77365H108.457V6.45857H112.626V9.77365H115.356V13.235H112.626V18.6951C112.626 19.1014 112.723 19.3939 112.918 19.5726C113.113 19.7514 113.438 19.8408 113.893 19.8408H115.38ZM116.873 16.5501C116.873 15.1525 117.133 13.9256 117.653 12.8694C118.189 11.8131 118.913 11.0006 119.823 10.4318C120.733 9.86303 121.748 9.57865 122.87 9.57865C123.828 9.57865 124.665 9.77365 125.38 10.1637C126.112 10.5537 126.672 11.0656 127.062 11.6993V9.77365H131.23V23.3752H127.062V21.4496C126.656 22.0833 126.087 22.5952 125.356 22.9852C124.641 23.3752 123.804 23.5702 122.845 23.5702C121.74 23.5702 120.733 23.2859 119.823 22.7171C118.913 22.1321 118.189 21.3114 117.653 20.2552C117.133 19.1826 116.873 17.9476 116.873 16.5501ZM127.062 16.5744C127.062 15.5344 126.77 14.7138 126.185 14.1125C125.616 13.5112 124.917 13.2106 124.088 13.2106C123.26 13.2106 122.553 13.5112 121.968 14.1125C121.399 14.6975 121.115 15.51 121.115 16.5501C121.115 17.5901 121.399 18.4189 121.968 19.0364C122.553 19.6377 123.26 19.9383 124.088 19.9383C124.917 19.9383 125.616 19.6377 126.185 19.0364C126.77 18.4351 127.062 17.6145 127.062 16.5744ZM138.414 5.33729V23.3752H134.246V5.33729H138.414ZM150.769 11.6993C151.159 11.0656 151.719 10.5537 152.45 10.1637C153.182 9.77365 154.019 9.57865 154.961 9.57865C156.082 9.57865 157.098 9.86303 158.008 10.4318C158.918 11.0006 159.633 11.8131 160.153 12.8694C160.689 13.9256 160.958 15.1525 160.958 16.5501C160.958 17.9476 160.689 19.1826 160.153 20.2552C159.633 21.3114 158.918 22.1321 158.008 22.7171C157.098 23.2859 156.082 23.5702 154.961 23.5702C154.002 23.5702 153.166 23.3834 152.45 23.0096C151.735 22.6196 151.175 22.1077 150.769 21.4739V23.3752H146.6V5.33729H150.769V11.6993ZM156.716 16.5501C156.716 15.51 156.424 14.6975 155.839 14.1125C155.27 13.5112 154.563 13.2106 153.718 13.2106C152.889 13.2106 152.182 13.5112 151.597 14.1125C151.029 14.7138 150.744 15.5344 150.744 16.5744C150.744 17.6145 151.029 18.4351 151.597 19.0364C152.182 19.6377 152.889 19.9383 153.718 19.9383C154.547 19.9383 155.254 19.6377 155.839 19.0364C156.424 18.4189 156.716 17.5901 156.716 16.5501ZM167.313 5.33729V23.3752H163.144V5.33729H167.313ZM169.504 16.5501C169.504 15.1525 169.764 13.9256 170.284 12.8694C170.821 11.8131 171.544 11.0006 172.454 10.4318C173.364 9.86303 174.38 9.57865 175.501 9.57865C176.46 9.57865 177.297 9.77365 178.012 10.1637C178.743 10.5537 179.303 11.0656 179.693 11.6993V9.77365H183.862V23.3752H179.693V21.4496C179.287 22.0833 178.718 22.5952 177.987 22.9852C177.272 23.3752 176.435 23.5702 175.477 23.5702C174.371 23.5702 173.364 23.2859 172.454 22.7171C171.544 22.1321 170.821 21.3114 170.284 20.2552C169.764 19.1826 169.504 17.9476 169.504 16.5501ZM179.693 16.5744C179.693 15.5344 179.401 14.7138 178.816 14.1125C178.247 13.5112 177.548 13.2106 176.72 13.2106C175.891 13.2106 175.184 13.5112 174.599 14.1125C174.03 14.6975 173.746 15.51 173.746 16.5501C173.746 17.5901 174.03 18.4189 174.599 19.0364C175.184 19.6377 175.891 19.9383 176.72 19.9383C177.548 19.9383 178.247 19.6377 178.816 19.0364C179.401 18.4351 179.693 17.6145 179.693 16.5744ZM195.165 9.6274C196.757 9.6274 198.025 10.1474 198.968 11.1874C199.926 12.2112 200.406 13.625 200.406 15.4288V23.3752H196.262V15.9894C196.262 15.0794 196.026 14.3725 195.555 13.8688C195.084 13.365 194.45 13.1131 193.654 13.1131C192.857 13.1131 192.224 13.365 191.752 13.8688C191.281 14.3725 191.045 15.0794 191.045 15.9894V23.3752H186.877V9.77365H191.045V11.5774C191.468 10.9762 192.037 10.5049 192.752 10.1637C193.467 9.80615 194.271 9.6274 195.165 9.6274ZM211.614 23.3752L207.47 17.6714V23.3752H203.302V5.33729H207.47V15.3069L211.59 9.77365H216.733L211.078 16.5988L216.782 23.3752H211.614ZM231.192 16.3551C231.192 16.7451 231.168 17.1513 231.119 17.5738H221.685C221.75 18.4189 222.019 19.0689 222.49 19.5239C222.977 19.9627 223.57 20.182 224.269 20.182C225.309 20.182 226.032 19.7433 226.439 18.8658H230.875C230.648 19.7595 230.233 20.5639 229.632 21.2789C229.047 21.994 228.307 22.5546 227.414 22.9609C226.52 23.3671 225.521 23.5702 224.415 23.5702C223.083 23.5702 221.897 23.2859 220.857 22.7171C219.817 22.1483 219.004 21.3358 218.419 20.2795C217.834 19.2233 217.542 17.9882 217.542 16.5744C217.542 15.1607 217.826 13.9256 218.395 12.8694C218.98 11.8131 219.792 11.0006 220.832 10.4318C221.872 9.86303 223.067 9.57865 224.415 9.57865C225.732 9.57865 226.902 9.85491 227.926 10.4074C228.949 10.9599 229.746 11.7481 230.314 12.7719C230.899 13.7956 231.192 14.99 231.192 16.3551ZM226.926 15.2582C226.926 14.5431 226.682 13.9744 226.195 13.5519C225.707 13.1294 225.098 12.9181 224.367 12.9181C223.668 12.9181 223.075 13.1212 222.587 13.5275C222.116 13.9338 221.824 14.5106 221.71 15.2582H226.926ZM240.972 19.8408V23.3752H238.851C237.34 23.3752 236.162 23.0096 235.317 22.2783C234.472 21.5308 234.049 20.3202 234.049 18.6464V13.235H232.391V9.77365H234.049V6.45857H238.217V9.77365H240.947V13.235H238.217V18.6951C238.217 19.1014 238.315 19.3939 238.51 19.5726C238.705 19.7514 239.03 19.8408 239.485 19.8408H240.972Z" fill="#252525"/>
<path d="M249.537 6.12455C250.582 6.12455 251.511 6.35674 252.323 6.82111C253.153 7.2689 253.791 7.89913 254.239 8.71179C254.703 9.52445 254.935 10.4532 254.935 11.498C254.935 12.5263 254.703 13.4551 254.239 14.2843C253.791 15.097 253.153 15.7355 252.323 16.1999C251.511 16.6476 250.582 16.8715 249.537 16.8715C248.492 16.8715 247.555 16.6476 246.726 16.1999C245.913 15.7355 245.275 15.097 244.81 14.2843C244.346 13.4551 244.114 12.5263 244.114 11.498C244.114 10.4532 244.346 9.52445 244.81 8.71179C245.275 7.89913 245.913 7.2689 246.726 6.82111C247.555 6.35674 248.492 6.12455 249.537 6.12455ZM249.537 15.4784C250.731 15.4784 251.685 15.1135 252.398 14.3838C253.111 13.6541 253.468 12.6922 253.468 11.498C253.468 10.3039 253.111 9.34201 252.398 8.61228C251.685 7.88254 250.731 7.51768 249.537 7.51768C248.343 7.51768 247.389 7.88254 246.676 8.61228C245.963 9.34201 245.606 10.3039 245.606 11.498C245.606 12.6922 245.963 13.6541 246.676 14.3838C247.389 15.1135 248.343 15.4784 249.537 15.4784ZM251.95 10.503C251.95 10.8512 251.859 11.1581 251.676 11.4234C251.511 11.6888 251.278 11.8878 250.98 12.0205L252.249 14.0604H250.209L249.214 12.2195H249.064V14.0604H247.273V8.78642H250.035C250.615 8.78642 251.079 8.94398 251.428 9.25909C251.776 9.5742 251.95 9.98882 251.95 10.503ZM249.039 11.0005H249.736C250.001 11.0005 250.134 10.8761 250.134 10.6273C250.134 10.3952 250.001 10.2791 249.736 10.2791H249.039V11.0005Z" fill="#252525"/>
<path d="M51.3171 16.8225C51.3171 23.6573 45.7499 29.198 38.8825 29.198C32.0152 29.198 26.448 23.6573 26.448 16.8225C26.448 15.8639 26.5575 14.9309 26.7647 14.035L33.4837 21.1122C34.7496 22.6882 36.6976 23.6978 38.8825 23.6978C42.6978 23.6978 45.7906 20.6196 45.7906 16.8225C45.7906 13.0253 42.6978 9.94715 38.8825 9.94715C35.1079 9.94715 32.0403 12.9603 31.9755 16.7017L27.447 11.9544C29.3467 7.53977 33.7517 4.4469 38.8825 4.4469C45.7499 4.4469 51.3171 9.98763 51.3171 16.8225Z" fill="url(#paint0_linear_281_857)"/>
<path d="M23.9318 21.5444C22.0671 26.0368 17.6218 29.198 12.4345 29.198C5.56712 29.198 0 23.6573 0 16.8225C0 9.98763 5.56712 4.4469 12.4345 4.4469C19.3019 4.4469 24.869 9.98763 24.869 16.8225C24.869 17.7812 24.7595 18.7146 24.5522 19.6107L17.2899 11.9115L17.2786 11.9207C16.0318 10.7002 14.3215 9.94715 12.4345 9.94715C8.6193 9.94715 5.52645 13.0253 5.52645 16.8225C5.52645 20.6196 8.6193 23.6978 12.4345 23.6978C16.2497 23.6978 19.3426 20.6196 19.3426 16.8225C19.3426 16.8154 19.3426 16.8083 19.3426 16.8013L23.9318 21.5444Z" fill="url(#paint1_linear_281_857)"/>
<path d="M24.2906 20.5641C24.3868 20.262 24.4716 19.9549 24.5446 19.6433L24.2906 20.5641Z" fill="url(#paint2_linear_281_857)"/>
<path d="M33.3956 21.0655L21.9084 8.80781L17.132 11.7937L29.1718 24.5228L33.3956 21.0655Z" fill="url(#paint3_linear_281_857)"/>
<path d="M27.5533 0.203857H33.0798V11.7544H27.5533V0.203857Z" fill="url(#paint4_linear_281_857)"/>
<path d="M18.7899 0.203857H24.3164V8.5328L18.7899 2.99327V0.203857Z" fill="url(#paint5_linear_281_857)"/>
<circle cx="78.8999" cy="5.9771" r="2.95073" fill="url(#paint6_linear_281_857)"/>
<circle cx="102.762" cy="5.9771" r="2.95073" fill="url(#paint7_linear_281_857)"/>
<defs>
<linearGradient id="paint0_linear_281_857" x1="51.3171" y1="17.2974" x2="-1.37587e-07" y2="17.2974" gradientUnits="userSpaceOnUse">
<stop stop-color="#76CF02"/>
<stop offset="0.889143" stop-color="#003B9C"/>
</linearGradient>
<linearGradient id="paint1_linear_281_857" x1="51.3171" y1="17.2974" x2="-1.37587e-07" y2="17.2974" gradientUnits="userSpaceOnUse">
<stop stop-color="#76CF02"/>
<stop offset="0.889143" stop-color="#003B9C"/>
</linearGradient>
<linearGradient id="paint2_linear_281_857" x1="51.3171" y1="17.2974" x2="-1.37587e-07" y2="17.2974" gradientUnits="userSpaceOnUse">
<stop stop-color="#76CF02"/>
<stop offset="0.889143" stop-color="#003B9C"/>
</linearGradient>
<linearGradient id="paint3_linear_281_857" x1="51.3171" y1="17.2974" x2="-1.37587e-07" y2="17.2974" gradientUnits="userSpaceOnUse">
<stop stop-color="#76CF02"/>
<stop offset="0.889143" stop-color="#003B9C"/>
</linearGradient>
<linearGradient id="paint4_linear_281_857" x1="51.3171" y1="17.2974" x2="-1.37587e-07" y2="17.2974" gradientUnits="userSpaceOnUse">
<stop stop-color="#76CF02"/>
<stop offset="0.889143" stop-color="#003B9C"/>
</linearGradient>
<linearGradient id="paint5_linear_281_857" x1="51.3171" y1="17.2974" x2="-1.37587e-07" y2="17.2974" gradientUnits="userSpaceOnUse">
<stop stop-color="#76CF02"/>
<stop offset="0.889143" stop-color="#003B9C"/>
</linearGradient>
<linearGradient id="paint6_linear_281_857" x1="81.8507" y1="6.50559" x2="75.9492" y2="6.50559" gradientUnits="userSpaceOnUse">
<stop stop-color="#76CF02"/>
<stop offset="0.889143" stop-color="#003B9C"/>
</linearGradient>
<linearGradient id="paint7_linear_281_857" x1="105.713" y1="6.50559" x2="99.8115" y2="6.50559" gradientUnits="userSpaceOnUse">
<stop stop-color="#76CF02"/>
<stop offset="0.889143" stop-color="#003B9C"/>
</linearGradient>
</defs>
</svg>
