<?xml version="1.0" encoding="UTF-8"?>
<svg version="1.1" xmlns="http://www.w3.org/2000/svg" width="200" height="57">
<path d="M0 0 C66 0 132 0 200 0 C200 18.81 200 37.62 200 57 C134 57 68 57 0 57 C0 38.19 0 19.38 0 0 Z " fill="#FDFDFE" transform="translate(0,0)"/>
<path d="M0 0 C1.35622245 0.96873032 2.69417053 1.96434215 4 3 C5.65 2.67 7.3 2.34 9 2 C9 7.28 9 12.56 9 18 C7.35 17.34 5.7 16.68 4 16 C4 16.66 4 17.32 4 18 C0.2818988 20.47873413 -3.68892522 20.76806505 -8 20 C-12.36879433 17.65957447 -12.36879433 17.65957447 -14 15 C-14.85406516 11.47986655 -14.85406516 8.52013345 -14 5 C-10.6758092 -0.4198763 -5.75462576 -0.74253236 0 0 Z " fill="#FCFDFE" transform="translate(168,18)"/>
<path d="M0 0 C3.67737288 1.02352327 5.51481986 2.67855435 7.96484375 5.546875 C9.39915755 9.54361457 9.3965365 12.50172413 7.77734375 16.421875 C4.675575 20.05843147 2.81820472 20.45205711 -1.97265625 20.984375 C-5.51044118 20.9117712 -6.0140557 20.56393502 -8.97265625 18.171875 C-11.10973924 15.4519512 -11.9235904 14.2322081 -12.47265625 10.859375 C-11.93470445 6.78631139 -10.66120557 4.86697452 -7.87890625 1.9140625 C-5.2209865 -0.05685257 -3.25316169 -0.32469176 0 0 Z " fill="#F9FBFD" transform="translate(63.03515625,17.453125)"/>
<path d="M0 0 C11 0 11 0 14.25 2.0625 C16 5 16 5 15.8125 8.8125 C15.544375 9.864375 15.27625 10.91625 15 12 C13.35 12.66 11.7 13.32 10 14 C10.5775 14.78246094 11.155 15.56492187 11.75 16.37109375 C12.86375 17.88896484 12.86375 17.88896484 14 19.4375 C14.7425 20.44683594 15.485 21.45617187 16.25 22.49609375 C18 25 18 25 18 26 C15.73828125 26.2734375 15.73828125 26.2734375 13 26 C10.98046875 24.1015625 10.98046875 24.1015625 9.1875 21.625 C8.58292969 20.81289063 7.97835937 20.00078125 7.35546875 19.1640625 C6 17 6 17 6 15 C5.34 15 4.68 15 4 15 C4 18.96 4 22.92 4 27 C2.68 26.67 1.36 26.34 0 26 C0 17.42 0 8.84 0 0 Z " fill="#1979BC" transform="translate(30,15)"/>
<path d="M0 0 C3.72547329 2.40515883 6.030339 5.16363001 7.3125 9.4375 C7.72049146 14.21682848 6.98874111 18.06946008 4 21.875 C0.46065263 25.24972656 -2.15349349 26.72637708 -7.0625 26.8125 C-11.64943217 26.69198947 -14.19285186 25.52579371 -17.6875 22.4375 C-20.22212158 19.70790753 -21.57678135 17.79712507 -21.8828125 14.0390625 C-21.57029024 7.91730287 -20.22060838 4.55850762 -15.6875 0.4375 C-10.65676471 -2.47503096 -5.1944273 -2.59165216 0 0 Z M-17.6875 9.4375 C-18.3549675 13.14565277 -17.98970785 14.8043026 -16.375 18.1875 C-14.71696845 20.65822445 -14.71696845 20.65822445 -11.6875 22.4375 C-6.38854669 22.86483494 -2.95355859 22.95072472 1.3125 19.4375 C3.53170304 16.71393263 3.3125 15.09001156 3.3125 11.5 C2.75249084 8.05626552 2.17059118 7.27136285 -0.25 4.4375 C-3.74709768 2.40282498 -5.74019597 1.56017627 -9.71875 1.8203125 C-13.6197244 3.04323701 -15.77004596 5.95377398 -17.6875 9.4375 Z " fill="#1678BB" transform="translate(68.6875,15.5625)"/>
<path d="M0 0 C3.48677255 1.74338627 4.65360562 2.43444252 6.98046875 5.22265625 C7.50447266 5.84333984 8.02847656 6.46402344 8.56835938 7.10351562 C9.36983398 8.07321289 9.36983398 8.07321289 10.1875 9.0625 C11.26421088 10.34514614 12.34102823 11.62770292 13.41796875 12.91015625 C13.89000732 13.47871338 14.3620459 14.04727051 14.84838867 14.63305664 C15.94121765 15.96961347 15.94121765 15.96961347 17 17 C17.33 11.39 17.66 5.78 18 0 C19.32 0 20.64 0 22 0 C22 8.91 22 17.82 22 27 C17.85300974 24.92650487 15.9825073 23.05120731 12.9375 19.625 C12.08027344 18.66851562 11.22304687 17.71203125 10.33984375 16.7265625 C8.47547743 14.55406219 6.71767953 12.29023938 5 10 C4.67 15.61 4.34 21.22 4 27 C2.68 27 1.36 27 0 27 C0 18.09 0 9.18 0 0 Z " fill="#1678BB" transform="translate(126,15)"/>
<path d="M0 0 C12 0 12 0 15.25 1.5625 C17 4 17 4 17.625 7.5 C17 11 17 11 15 13.4375 C11.00764582 15.51685114 8.45909693 15.30231166 4 15 C4 18.96 4 22.92 4 27 C2.68 27 1.36 27 0 27 C0 18.09 0 9.18 0 0 Z " fill="#1275BA" transform="translate(10,15)"/>
<path d="M0 0 C3.24828388 1.73776504 4.71101371 2.64085362 5.8984375 6.203125 C4.1484375 6.890625 4.1484375 6.890625 1.8984375 7.203125 C1.3209375 6.72875 0.7434375 6.254375 0.1484375 5.765625 C-3.14158885 3.48088448 -6.2825187 3.56031565 -10.1015625 4.203125 C-13.26822917 5.36979167 -13.26822917 5.36979167 -15.1015625 8.203125 C-15.80499738 11.67417254 -15.80499738 14.73207746 -15.1015625 18.203125 C-13.26822917 21.03645833 -13.26822917 21.03645833 -10.1015625 22.203125 C-6.03782329 22.74227456 -2.00851581 22.50544277 1.8984375 21.203125 C1.8984375 20.543125 1.8984375 19.883125 1.8984375 19.203125 C3.2184375 19.863125 4.5384375 20.523125 5.8984375 21.203125 C1.89454644 25.42344261 -0.57298675 27.32394894 -6.4140625 27.515625 C-11.03198948 27.45555441 -13.57761284 26.30755684 -17.1015625 23.203125 C-20.54181048 18.2206969 -21.35648757 15.37962267 -20.60546875 9.45703125 C-19.65509091 5.20611643 -17.15383671 3.07500935 -13.9140625 0.390625 C-9.30434981 -1.55569813 -4.72338951 -1.79102502 0 0 Z " fill="#1B7BBD" transform="translate(170.1015625,14.796875)"/>
<path d="M0 0 C5.28 0 10.56 0 16 0 C16 1.32 16 2.64 16 4 C12.04 4 8.08 4 4 4 C4 6.31 4 8.62 4 11 C7.96 11 11.92 11 16 11 C16 12.32 16 13.64 16 15 C12.04 15 8.08 15 4 15 C4 17.64 4 20.28 4 23 C7.96 23 11.92 23 16 23 C16 24.32 16 25.64 16 27 C10.72 27 5.44 27 0 27 C0 18.09 0 9.18 0 0 Z " fill="#1A7ABC" transform="translate(177,15)"/>
<path d="M0 0 C1.32 0 2.64 0 4 0 C4 3.63 4 7.26 4 11 C7.96 11 11.92 11 16 11 C16 7.37 16 3.74 16 0 C17.32 0 18.64 0 20 0 C20 8.91 20 17.82 20 27 C18.68 27 17.36 27 16 27 C16 22.71 16 18.42 16 14 C12.04 14 8.08 14 4 14 C4 18.29 4 22.58 4 27 C2.68 27 1.36 27 0 27 C0 18.09 0 9.18 0 0 Z " fill="#1175BA" transform="translate(77,15)"/>
<path d="M0 0 C4.44344983 3.71671738 6.65196511 8.5648739 9.25 13.625 C9.70890625 14.49640625 10.1678125 15.3678125 10.640625 16.265625 C14 22.72442336 14 22.72442336 14 25 C12.68 25 11.36 25 10 25 C7.03 19.72 4.06 14.44 1 9 C-1.97 14.61 -4.94 20.22 -8 26 C-9.32 26 -10.64 26 -12 26 C-10.34176227 20.46347949 -7.92776074 15.38439485 -5.4375 10.1875 C-5.02564453 9.31673828 -4.61378906 8.44597656 -4.18945312 7.54882812 C-1.13502139 1.13502139 -1.13502139 1.13502139 0 0 Z " fill="#13B359" transform="translate(110,16)"/>
<path d="M0 0 C6.15234375 -0.09765625 6.15234375 -0.09765625 8 0 C9 1 9 1 9.0625 3.5625 C9.041875 4.366875 9.02125 5.17125 9 6 C6.04335481 7.4783226 3.25770263 7.06032783 0 7 C0 4.69 0 2.38 0 0 Z " fill="#FCFDFE" transform="translate(14,19)"/>
<path d="M0 0 C2.875 -0.125 2.875 -0.125 6 0 C6.66 0.66 7.32 1.32 8 2 C7.46428571 5.53571429 7.46428571 5.53571429 6 7 C4.00041636 7.04080783 1.99954746 7.04254356 0 7 C0 4.69 0 2.38 0 0 Z " fill="#F2F7FB" transform="translate(34,19)"/>
</svg>
